<?xml version="1.0" encoding="UTF-8" standalone="no"?>
<svg xmlns="http://www.w3.org/2000/svg" xml:space="preserve" width="443.19971" height="363.10431">
  <g transform="matrix(1.33333 0 0 -1.33333 -313.80029 679)">
    <path d="M559.95422 468.17181c-3.546 8.119-8.434 15.249-14.658 21.386-6.22 6.14-13.448 10.956-21.692 14.448-8.235 3.496-17.051 5.242-26.435 5.244 0 0-16.577-.016-16.982-.016-17.808 0-32.295-14.285-32.295-31.845 0-19.371 16.748-31.881 31.171-31.881h18.106c2.298 0 3.448-1.134 3.448-3.399v-124.082c0-3.966 1.389-7.31799 4.168-10.05399 2.778-2.74001 6.176-4.10901 10.199-4.10901 4.029 0 7.42 1.369 10.199 4.10901 2.778 2.736 4.171 6.08799 4.171 10.05399v124.082c0 4.343-.859 8.451-2.589 12.321-1.728 3.873-4.02 7.225-6.896 10.056-2.372 2.34-5.119 4.27-8.207 5.835.527 2.276.827 4.637.827 7.068 0 .176-.015.347-.025.523 4.762-1.98 8.955-4.754 12.573-8.325 3.648-3.586 6.477-7.743 8.475-12.464 2.015-4.722 3.028-9.727 3.028-15.014v-124.082c0-3.966 1.387-7.31799 4.165-10.05399 2.773-2.74001 6.177-4.10901 10.193-4.10901 4.029 0 7.426 1.369 10.205 4.10901 2.785 2.736 4.165 6.08799 4.165 10.05399v124.082c0 9.254-1.771 17.942-5.314 26.063m-97.80306 9.217c0 9.81 8.096 17.789 18.036 17.789 9.95 0 18.049-7.979 18.049-17.789 0-9.81-8.099-17.79-18.049-17.79-9.94 0-18.036 7.98-18.036 17.79"/>
    <path fill="#241f21" d="M472.11922 478.21051c0 4.013 3.297 7.262 7.367 7.262 4.071 0 7.364-3.249 7.364-7.262 0-4.011-3.293-7.264-7.364-7.264-4.07 0-7.367 3.253-7.367 7.264m-211.9705 0c0 4.013 3.294 7.262 7.361 7.262 4.071 0 7.368-3.249 7.368-7.262 0-4.011-3.297-7.264-7.368-7.264-4.067 0-7.361 3.253-7.361 7.264m0-71.97058c0 4.01199 3.294 7.26399 7.361 7.26399 4.071 0 7.368-3.252 7.368-7.26399 0-4.01001-3.297-7.263-7.368-7.263-4.067 0-7.361 3.25299-7.361 7.263m0-70.57932c0 4.01 3.294 7.262 7.361 7.262 4.071 0 7.368-3.252 7.368-7.262 0-4.00999-3.297-7.26199-7.368-7.26199-4.067 0-7.361 3.252-7.361 7.26199"/>
    <path d="M433.40522 406.41102c3.255 5.10199 5.791 10.62699 7.616 16.57399 1.816 5.95001 2.728 12.23 2.728 18.842 0 9.253-1.822 17.987-5.463 26.201-3.637 8.217-8.522 15.345-14.657 21.39-6.122 6.043-13.356 10.86-21.689 14.448-8.333 3.589-17.193 5.382-26.577 5.384h-108.305c-17.569-.285-31.708-14.506-31.708-31.888 0-17.374 14.162-31.557 31.708-31.855h108.305c2.488 0 3.732-1.226 3.732-3.68 0-2.268-1.244-3.403-3.732-3.403h-108.305c-17.562-.283-31.708-14.515-31.708-31.901 0-17.366 14.165-31.532 31.708-31.83699h108.305c2.488 0 3.732-1.227 3.732-3.68601 0-2.26299-1.244-3.399-3.732-3.399h-108.305c-17.562-.27999-31.708-14.515-31.708-31.897 0-17.366 14.165-31.536 31.708-31.83999h108.305c9.384 0 18.244 1.743 26.577 5.241 8.333 3.49299 15.567 8.30799 21.689 14.44399 6.135 6.141 11.02 13.27001 14.657 21.39101 3.641 8.121 5.463 16.80899 5.463 26.05999 0 6.61101-.912 12.843-2.728 18.69801-1.825 5.856-4.361 11.427-7.616 16.713m-183.802 70.95099c0 9.808 8.093 17.79 18.043 17.79 9.955 0 18.045-7.982 18.045-17.79s-8.09-17.789-18.045-17.789c-9.95 0-18.043 7.981-18.043 17.789m0-70.839c0 9.813 8.093 17.794 18.043 17.794 9.955 0 18.045-7.981 18.045-17.794 0-9.80499-8.09-17.786-18.045-17.786-9.95 0-18.043 7.98101-18.043 17.786m0-70.819c0 9.808 8.093 17.79 18.043 17.79 9.955 0 18.045-7.982 18.045-17.79 0-9.80799-8.09-17.789-18.045-17.789-9.95 0-18.043 7.98101-18.043 17.789m158.946 56.54401c4.313-6.23201 6.466-13.31301 6.466-21.24801 0-5.478-1.054-10.527-3.161-15.153-2.105-4.629-4.938-8.734-8.475-12.324-3.545-3.589-7.761-6.375-12.652-8.35699-4.875-1.983-10.003-2.976-15.364-2.976h-75.624c.136 1.158.214 2.328.214 3.51399 0 1.20801-.085 2.397-.22 3.571h75.63c4.408 0 8.569.849 12.494 2.549 3.925 1.699 7.373 3.96501 10.344 6.798 2.975 2.833 5.314 6.18501 7.042 10.05801 1.72 3.87199 2.589 7.978 2.589 12.31999 0 4.345-.869 8.454-2.589 12.327-1.728 3.86901-4.067 7.27101-7.042 10.197-2.971 2.926-6.419 5.242-10.344 6.942-3.925 1.699-8.086 2.54901-12.494 2.54901h-75.624c.136 1.155.214 2.325.214 3.50799 0 1.21101-.085 2.4-.22 3.573h75.63c4.408 0 8.569.847 12.494 2.55 3.925 1.70001 7.373 3.967 10.344 6.80001 2.975 2.832 5.314 6.183 7.042 10.056 1.72 3.87 2.589 7.97899 2.589 12.32499 0 4.34-.869 8.448-2.589 12.322-1.728 3.872-4.067 7.271-7.042 10.197-2.971 2.928-6.419 5.24-10.344 6.942-3.925 1.698-8.086 2.549-12.494 2.549h-75.63c.135 1.158.22 2.333.22 3.525 0 1.203-.085 2.389-.22 3.558h75.63c5.361 0 10.489-1.041 15.364-3.116 4.891-2.079 9.107-4.865 12.652-8.359 3.537-3.493 6.37-7.65 8.475-12.464 2.107-4.815 3.161-9.867 3.161-15.154 0-7.935-2.153-15.01599-6.466-21.24999-4.308-6.231-9.912-10.95401-16.808-14.166 6.896-3.20901 12.5-7.93101 16.808-14.163m-156.5872-154.3382 1.711 28.94599h.136l5.28-21.56899c.783-3.324 1.581-5.547 2.406-6.66701.814-1.12099 2.137-1.638 3.947-1.55299 1.809-.085 3.132.432 3.947 1.55299.82 1.12001 1.623 3.34301 2.396 6.66701l5.276 21.57499h.139l1.715-28.95199h15.036l-3.353 39.694c-.442 4.08999-1.652 6.855-3.619 8.30199-1.967 1.44201-4.205 2.12001-6.716 2.02701-3.505.031-6.012-.55701-7.511-1.76501-1.513-1.20799-2.593-3.219-3.244-6.03l-3.997-15.181h-.142l-3.991 15.181c-.654 2.811-1.734 4.82201-3.24 6.03-1.512 1.208-4.016 1.796-7.521 1.76501-2.507.093-4.749-.585-6.722-2.02701-1.968-1.44699-3.177-4.212-3.613-8.30199l-3.353-39.694zm70.8431 49.18189h-15.532v-49.182h15.532zm28.1624-28.9486h.142l7.998-15.527c.689-1.407 1.809-2.689 3.369-3.847 1.56-1.158 3.445-1.77399 5.671-1.84599 1.09-.022 2.286.22699 3.572.738 1.294.504 2.409 1.407 3.353 2.69899.944 1.29101 1.433 3.09701 1.484 5.41601v41.31599h-15.532v-20.377h-.142l-7.992 15.52701c-.692 1.407-1.822 2.68999-3.375 3.84699-1.567 1.158-3.449 1.77501-5.675 1.843-1.095.022-2.283-.22099-3.577-.73399-1.285-.50801-2.403-1.41101-3.347-2.69901-.944-1.292-1.437-3.098-1.481-5.42v-41.16899h15.532zm37.4424 28.94881v-33.313c.047-3.387.947-6.33101 2.703-8.82801 1.743-2.496 4.061-4.42599 6.928-5.802 2.867-1.37 5.999-2.067 9.396-2.082 3.404.015 6.53.712 9.404 2.082 2.867 1.37601 5.178 3.306 6.924 5.802 1.759 2.497 2.649 5.44101 2.706 8.82801v33.313h-15.532v-32.46901c.003-1.01199-.287-1.865-.868-2.562-.575-.698-1.456-1.062-2.634-1.08999-1.171.028-2.049.39199-2.627 1.08999-.581.697-.868 1.55001-.868 2.562v32.46901zm49.2326-14.0451h8.197v-35.137h15.532v35.137h8.264v14.04499h-31.993zm65.6017-.70641c2.817-.072 5.169-1.03299 7.051-2.892 1.882-1.85199 2.857-4.171 2.933-6.947-.076-2.783-1.051-5.09999-2.933-6.955-1.882-1.855-4.234-2.82-7.051-2.88799-2.823.068-5.172 1.03299-7.051 2.88799-1.885 1.85501-2.861 4.172-2.93 6.955.069 2.776 1.045 5.09501 2.93 6.947 1.879 1.85901 4.228 2.82 7.051 2.892m0 15.592c-4.787-.056-9.113-1.21699-12.996-3.487-3.875-2.26599-6.972-5.316-9.268-9.13899-2.302-3.822-3.483-8.09301-3.54-12.80501.057-4.72 1.238-8.99 3.54-12.81299 2.296-3.822 5.393-6.867 9.268-9.13901 3.883-2.266 8.209-3.43 12.996-3.483 4.79.053 9.11 1.217 12.993 3.483 3.878 2.27201 6.963 5.31701 9.271 9.13901 2.299 3.82299 3.476 8.09299 3.533 12.81299-.057 4.712-1.234 8.98301-3.533 12.80501-2.308 3.82299-5.393 6.873-9.271 9.13899-3.883 2.27001-8.203 3.43101-12.993 3.487m31.2978-35.97749v-14.045h15.03c5.936.075 10.442 1.36301 13.527 3.86 3.079 2.499 4.629 5.752 4.651 9.76101-.085 2.85799-.916 5.367-2.501 7.533-1.582 2.16699-3.404 4.04099-5.484 5.62899-2.078 1.58-3.909 2.935-5.485 4.052-1.576 1.121-2.416 2.061-2.495 2.82701-.044.591.237 1.03299.85 1.31899.615.293 1.828.43601 3.637.43601h9.482v13.76499h-14.25c-2.965.025-5.721-.374-8.26-1.18899-2.532-.816-4.585-2.21001-6.148-4.18101-1.569-1.973-2.371-4.67799-2.415-8.115.079-2.61399.868-4.93599 2.362-6.978 1.496-2.036 3.227-3.835 5.197-5.379 1.967-1.551 3.698-2.895 5.198-4.03399 1.493-1.146 2.279-2.124 2.355-2.94201.044-.924-.347-1.553-1.175-1.871-.833-.324-2.362-.47299-4.597-.448z"/>
  </g>
</svg>